<svg width="60" height="60" viewBox="0 0 60 60" fill="none" xmlns="http://www.w3.org/2000/svg">
<circle r="30" transform="matrix(1 0 0 -1 30 30)" fill="#6100FF"/>
<g clip-path="url(#clip0_4356_19037)">
<path d="M40.7188 20.3021H39.6979V17.0938C39.6979 16.4897 39.2082 16 38.6041 16H21.3959C20.7918 16 20.3021 16.4897 20.3021 17.0938V20.3021H19.2812C17.472 20.3021 16 21.7741 16 23.5834V36.4167C16 38.226 17.472 39.698 19.2812 39.698H28.9062V41.8125H25.6979C25.0938 41.8125 24.6041 42.3022 24.6041 42.9062C24.6041 43.5103 25.0938 44 25.6979 44H34.302C34.9061 44 35.3958 43.5103 35.3958 42.9062C35.3958 42.3022 34.9061 41.8125 34.302 41.8125H31.0938V39.6979H40.7188C42.528 39.6979 44 38.2259 44 36.4166V23.5834C44 21.7741 42.528 20.3021 40.7188 20.3021ZM40.7188 22.4896C41.3218 22.4896 41.8125 22.9803 41.8125 23.5834V33.2084H39.6979V22.4896H40.7188ZM22.4896 18.1875H37.5105V33.2084H22.4896V18.1875ZM19.2812 22.4896H20.3021V33.2084H18.1875V23.5834C18.1875 22.9803 18.6782 22.4896 19.2812 22.4896ZM40.7188 37.5104H19.2812C18.6782 37.5104 18.1875 37.0197 18.1875 36.4166V35.3958H41.8125V36.4166C41.8125 37.0197 41.3218 37.5104 40.7188 37.5104ZM24.6041 23.5469C24.6041 22.9428 25.0938 22.4531 25.6979 22.4531H34.302C34.9061 22.4531 35.3958 22.9428 35.3958 23.5469C35.3958 24.151 34.9061 24.6406 34.302 24.6406H25.6979C25.0939 24.6406 24.6041 24.151 24.6041 23.5469ZM24.6041 28.9062C24.6041 28.3022 25.0938 27.8125 25.6979 27.8125H34.302C34.9061 27.8125 35.3958 28.3022 35.3958 28.9062C35.3958 29.5103 34.9061 30 34.302 30H25.6979C25.0939 30 24.6041 29.5103 24.6041 28.9062Z" fill="white"/>
</g>
<defs>
<clipPath id="clip0_4356_19037">
<rect width="28" height="28" fill="white" transform="translate(16 16)"/>
</clipPath>
</defs>
</svg>
