<svg width="60" height="60" viewBox="0 0 60 60" fill="none" xmlns="http://www.w3.org/2000/svg">
<circle cx="30" cy="30" r="30" fill="#FF9900"/>
<path d="M43.375 21.8281C42.7617 21.8281 42.1735 22.0718 41.7398 22.5054C41.3061 22.9391 41.0625 23.5273 41.0625 24.1406V31.4562L39.8588 32.9859C39.7679 32.607 39.552 32.2697 39.246 32.0285C38.9399 31.7873 38.5616 31.6561 38.1719 31.6562H38.0961C37.8584 31.6566 37.6232 31.7057 37.4052 31.8005C37.1871 31.8952 36.9908 32.0337 36.8283 32.2072L29.6995 39.8454C29.6281 39.9277 29.5615 40.0139 29.5 40.1038C29.4385 40.0139 29.3719 39.9277 29.3005 39.8454L22.1717 32.2072C22.0092 32.0337 21.8129 31.8952 21.5948 31.8005C21.3768 31.7057 21.1416 31.6566 20.9039 31.6562H20.8281C20.4384 31.6561 20.0601 31.7873 19.754 32.0285C19.448 32.2697 19.2321 32.607 19.1412 32.9859L17.9375 31.4562V24.1406C17.9375 23.5273 17.6939 22.9391 17.2602 22.5054C16.8265 22.0718 16.2383 21.8281 15.625 21.8281C15.0117 21.8281 14.4235 22.0718 13.9898 22.5054C13.5561 22.9391 13.3125 23.5273 13.3125 24.1406V33.9688C13.3125 34.0655 13.3367 34.1607 13.383 34.2457L16.8518 40.605C16.8785 40.6533 16.9117 40.6977 16.9506 40.7369L21.4762 45.263C21.8006 45.5888 21.9832 46.0295 21.9844 46.4892V47.8438C21.9844 47.9971 22.0453 48.1441 22.1537 48.2525C22.2621 48.361 22.4092 48.4219 22.5625 48.4219H36.4375C36.5908 48.4219 36.7379 48.361 36.8463 48.2525C36.9547 48.1441 37.0156 47.9971 37.0156 47.8438V46.4892C37.0168 46.0295 37.1994 45.5888 37.5238 45.263L42.0494 40.7369C42.0883 40.6977 42.1215 40.6533 42.1482 40.605L45.617 34.2457C45.6633 34.1607 45.6875 34.0655 45.6875 33.9688V24.1406C45.6875 23.5273 45.4439 22.9391 45.0102 22.5054C44.5765 22.0718 43.9883 21.8281 43.375 21.8281ZM22.2937 44.4455L17.8271 39.9813L14.4688 33.8213V24.1406C14.4688 23.834 14.5906 23.5399 14.8074 23.323C15.0242 23.1062 15.3183 22.9844 15.625 22.9844C15.9317 22.9844 16.2258 23.1062 16.4426 23.323C16.6594 23.5399 16.7812 23.834 16.7812 24.1406V31.6562C16.7813 31.7858 16.8249 31.9117 16.905 32.0135L23.2643 40.1073L24.1732 39.3927L20.25 34.3995V33.3906C20.25 33.2373 20.3109 33.0902 20.4193 32.9818C20.5277 32.8734 20.6748 32.8125 20.8281 32.8125H20.9039C20.983 32.8125 21.0613 32.8288 21.1339 32.8603C21.2065 32.8919 21.2718 32.938 21.3259 32.9958L28.4548 40.634C28.7553 40.9549 28.9224 41.3783 28.9219 41.818V47.2656H23.1406V46.4892C23.1416 46.1095 23.0672 45.7333 22.9218 45.3826C22.7764 45.0318 22.5629 44.7133 22.2937 44.4455ZM44.5312 33.8213L41.1729 39.9813L36.7063 44.4484C36.4374 44.7158 36.2241 45.0338 36.0788 45.3841C35.9334 45.7344 35.8588 46.11 35.8594 46.4892V47.2656H30.0781V41.818C30.0776 41.3783 30.2447 40.9549 30.5452 40.634L37.6741 32.9958C37.7282 32.938 37.7935 32.8919 37.8661 32.8603C37.9387 32.8288 38.017 32.8125 38.0961 32.8125H38.1719C38.3252 32.8125 38.4723 32.8734 38.5807 32.9818C38.6891 33.0902 38.75 33.2373 38.75 33.3906V34.3995L34.8268 39.3927L35.7357 40.1073L42.095 32.0135C42.1751 31.9117 42.2187 31.7858 42.2188 31.6562V24.1406C42.2188 23.834 42.3406 23.5399 42.5574 23.323C42.7742 23.1062 43.0683 22.9844 43.375 22.9844C43.6817 22.9844 43.9758 23.1062 44.1926 23.323C44.4094 23.5399 44.5312 23.834 44.5312 24.1406V33.8213Z" fill="white"/>
<path d="M24.8739 32.2345C25.7729 32.2351 26.6596 32.0251 27.4628 31.6212C28.266 31.2173 28.9633 30.6308 29.4989 29.9087C30.0721 30.676 30.827 31.2887 31.6957 31.6918C32.5645 32.0948 33.5198 32.2755 34.4758 32.2177C35.4317 32.1599 36.3583 31.8653 37.1721 31.3604C37.9859 30.8555 38.6614 30.1563 39.1379 29.3255C39.6143 28.4947 39.8768 27.5585 39.9016 26.6012C39.9263 25.6438 39.7127 24.6953 39.2799 23.841C38.8471 22.9867 38.2087 22.2534 37.4221 21.7071C36.6355 21.1607 35.7254 20.8186 34.7737 20.7113C35.1681 19.831 35.336 18.8659 35.262 17.9041C35.188 16.9423 34.8744 16.0142 34.35 15.2046C33.8255 14.3949 33.1068 13.7294 32.2593 13.2686C31.4118 12.8078 30.4624 12.5664 29.4978 12.5664C28.5331 12.5664 27.5837 12.8078 26.7362 13.2686C25.8887 13.7294 25.17 14.3949 24.6456 15.2046C24.1211 16.0142 23.8076 16.9423 23.7336 17.9041C23.6595 18.8659 23.8274 19.831 24.2218 20.7113C22.7586 20.8828 21.4161 21.6063 20.4684 22.7342C19.5207 23.862 19.0393 25.3091 19.1225 26.78C19.2058 28.2508 19.8474 29.6343 20.9163 30.6481C21.9852 31.6618 23.4008 32.2293 24.8739 32.2345ZM34.1239 21.8283C35.153 21.8214 36.1553 22.1556 36.9743 22.7787C37.7933 23.4018 38.3828 24.2787 38.6507 25.2723C38.9186 26.2659 38.8498 27.3202 38.455 28.2705C38.0602 29.2209 37.3618 30.0137 36.4687 30.525C35.5757 31.0364 34.5384 31.2375 33.519 31.097C32.4996 30.9564 31.5554 30.4821 30.8341 29.7481C30.1128 29.0142 29.6549 28.062 29.5321 27.0402C29.4092 26.0185 29.6283 24.9849 30.1551 24.1009C30.9345 24.0107 31.6873 23.7626 32.3677 23.3719C33.048 22.9812 33.6416 22.456 34.1124 21.8283H34.1239ZM29.4989 13.7345C30.4137 13.7345 31.3079 14.0058 32.0684 14.514C32.829 15.0222 33.4218 15.7445 33.7719 16.5896C34.1219 17.4347 34.2135 18.3647 34.0351 19.2618C33.8566 20.159 33.4161 20.9831 32.7693 21.6299C32.1225 22.2767 31.2984 22.7172 30.4012 22.8957C29.5041 23.0741 28.5741 22.9825 27.729 22.6325C26.8839 22.2824 26.1616 21.6896 25.6534 20.929C25.1452 20.1685 24.8739 19.2743 24.8739 18.3595C24.8753 17.1333 25.363 15.9577 26.2301 15.0907C27.0971 14.2236 28.2727 13.7359 29.4989 13.7345ZM24.8739 21.8283H24.8855C25.3568 22.4571 25.9516 22.9831 26.6333 23.3739C27.3151 23.7648 28.0695 24.0124 28.8503 24.1015C28.5164 24.8398 28.3434 25.6408 28.3427 26.4511C28.342 27.2614 28.5136 28.0627 28.8462 28.8016C28.4342 29.4982 27.8465 30.0744 27.1419 30.4725C26.4373 30.8706 25.6404 31.0766 24.8312 31.07C24.0219 31.0634 23.2285 30.8444 22.5305 30.4349C21.8325 30.0253 21.2542 29.4397 20.8536 28.7364C20.4531 28.0332 20.2442 27.2371 20.2479 26.4278C20.2517 25.6186 20.4679 24.8244 20.875 24.125C21.282 23.4255 21.8657 22.8452 22.5675 22.4421C23.2693 22.0391 24.0646 21.8274 24.8739 21.8283Z" fill="white"/>
<path d="M23.7188 27.6094H22.5625C22.5625 28.0694 22.7452 28.5105 23.0705 28.8358C23.3957 29.161 23.8369 29.3438 24.2969 29.3438V29.9219H25.4531V29.3438C25.9131 29.3438 26.3543 29.161 26.6795 28.8358C27.0048 28.5105 27.1875 28.0694 27.1875 27.6094C27.1875 27.1494 27.0048 26.7082 26.6795 26.383C26.3543 26.0577 25.9131 25.875 25.4531 25.875V24.7188C25.6065 24.7188 25.7535 24.7797 25.8619 24.8881C25.9703 24.9965 26.0312 25.1435 26.0312 25.2969H27.1875C27.1875 24.8369 27.0048 24.3957 26.6795 24.0705C26.3543 23.7452 25.9131 23.5625 25.4531 23.5625V22.9844H24.2969V23.5625C23.8369 23.5625 23.3957 23.7452 23.0705 24.0705C22.7452 24.3957 22.5625 24.8369 22.5625 25.2969C22.5625 25.7569 22.7452 26.198 23.0705 26.5233C23.3957 26.8485 23.8369 27.0312 24.2969 27.0312V28.1875C24.1435 28.1875 23.9965 28.1266 23.8881 28.0182C23.7797 27.9098 23.7188 27.7627 23.7188 27.6094ZM23.7188 25.2969C23.7188 25.1435 23.7797 24.9965 23.8881 24.8881C23.9965 24.7797 24.1435 24.7188 24.2969 24.7188V25.875C24.1435 25.875 23.9965 25.8141 23.8881 25.7057C23.7797 25.5973 23.7188 25.4502 23.7188 25.2969ZM25.4531 27.0312C25.6065 27.0312 25.7535 27.0922 25.8619 27.2006C25.9703 27.309 26.0312 27.456 26.0312 27.6094C26.0312 27.7627 25.9703 27.9098 25.8619 28.0182C25.7535 28.1266 25.6065 28.1875 25.4531 28.1875V27.0312Z" fill="white"/>
<path d="M33.5469 23.5625C33.0869 23.5625 32.6457 23.7452 32.3205 24.0705C31.9952 24.3957 31.8125 24.8369 31.8125 25.2969C31.8125 25.7569 31.9952 26.198 32.3205 26.5233C32.6457 26.8485 33.0869 27.0312 33.5469 27.0312V28.1875C33.3935 28.1875 33.2465 28.1266 33.1381 28.0182C33.0297 27.9098 32.9688 27.7627 32.9688 27.6094H31.8125C31.8125 28.0694 31.9952 28.5105 32.3205 28.8358C32.6457 29.161 33.0869 29.3438 33.5469 29.3438V29.9219H34.7031V29.3438C35.1631 29.3438 35.6043 29.161 35.9295 28.8358C36.2548 28.5105 36.4375 28.0694 36.4375 27.6094C36.4375 27.1494 36.2548 26.7082 35.9295 26.383C35.6043 26.0577 35.1631 25.875 34.7031 25.875V24.7188C34.8565 24.7188 35.0035 24.7797 35.1119 24.8881C35.2203 24.9965 35.2812 25.1435 35.2812 25.2969H36.4375C36.4375 24.8369 36.2548 24.3957 35.9295 24.0705C35.6043 23.7452 35.1631 23.5625 34.7031 23.5625V22.9844H33.5469V23.5625ZM35.2812 27.6094C35.2812 27.7627 35.2203 27.9098 35.1119 28.0182C35.0035 28.1266 34.8565 28.1875 34.7031 28.1875V27.0312C34.8565 27.0312 35.0035 27.0922 35.1119 27.2006C35.2203 27.309 35.2812 27.456 35.2812 27.6094ZM33.5469 25.875C33.3935 25.875 33.2465 25.8141 33.1381 25.7057C33.0297 25.5973 32.9688 25.4502 32.9688 25.2969C32.9688 25.1435 33.0297 24.9965 33.1381 24.8881C33.2465 24.7797 33.3935 24.7188 33.5469 24.7188V25.875Z" fill="white"/>
<path d="M28.3438 19.5156H27.1875C27.1875 19.9756 27.3702 20.4168 27.6955 20.742C28.0207 21.0673 28.4619 21.25 28.9219 21.25V21.8281H30.0781V21.25C30.5381 21.25 30.9793 21.0673 31.3045 20.742C31.6298 20.4168 31.8125 19.9756 31.8125 19.5156C31.8125 19.0556 31.6298 18.6145 31.3045 18.2892C30.9793 17.964 30.5381 17.7812 30.0781 17.7812V16.625C30.2315 16.625 30.3785 16.6859 30.4869 16.7943C30.5953 16.9027 30.6562 17.0498 30.6562 17.2031H31.8125C31.8125 16.7431 31.6298 16.302 31.3045 15.9767C30.9793 15.6515 30.5381 15.4688 30.0781 15.4688V14.8906H28.9219V15.4688C28.4619 15.4688 28.0207 15.6515 27.6955 15.9767C27.3702 16.302 27.1875 16.7431 27.1875 17.2031C27.1875 17.6631 27.3702 18.1043 27.6955 18.4295C28.0207 18.7548 28.4619 18.9375 28.9219 18.9375V20.0938C28.7685 20.0938 28.6215 20.0328 28.5131 19.9244C28.4047 19.816 28.3438 19.669 28.3438 19.5156ZM28.3438 17.2031C28.3438 17.0498 28.4047 16.9027 28.5131 16.7943C28.6215 16.6859 28.7685 16.625 28.9219 16.625V17.7812C28.7685 17.7812 28.6215 17.7203 28.5131 17.6119C28.4047 17.5035 28.3438 17.3565 28.3438 17.2031ZM30.0781 18.9375C30.2315 18.9375 30.3785 18.9984 30.4869 19.1068C30.5953 19.2152 30.6562 19.3623 30.6562 19.5156C30.6562 19.669 30.5953 19.816 30.4869 19.9244C30.3785 20.0328 30.2315 20.0938 30.0781 20.0938V18.9375Z" fill="white"/>
</svg>
