<svg id="Layer_1" data-name="Layer 1" xmlns="http://www.w3.org/2000/svg" viewBox="0 0 133.62 40.64"><defs><style>.cls-1{fill:#004887;}.cls-2{isolation:isolate;}</style></defs><path class="cls-1" d="M10,7.31H30.23v6.46H16.51A6.47,6.47,0,0,1,10,7.31Z"/><path class="cls-1" d="M10,16.82H30.23v6.46H16.51A6.47,6.47,0,0,1,10,16.82Z"/><path class="cls-1" d="M10,26.33H30.23V32.8H16.51A6.47,6.47,0,0,1,10,26.33Z"/><g class="cls-2"><g class="cls-2"><path class="cls-1" d="M47.56,30.94a.54.54,0,0,1-.05.22.44.44,0,0,1-.18.14,1.9,1.9,0,0,1-.34.08,3.94,3.94,0,0,1-.52,0,3.89,3.89,0,0,1-.53,0,2,2,0,0,1-.35-.08.41.41,0,0,1-.19-.14.43.43,0,0,1-.06-.22v-1.8A9.24,9.24,0,0,1,43.1,31a5.1,5.1,0,0,1-2.53.65A5.35,5.35,0,0,1,38,31a4.84,4.84,0,0,1-1.72-1.58,6.89,6.89,0,0,1-1-2.33A12.83,12.83,0,0,1,35,24.3a11.93,11.93,0,0,1,.38-3.17,6.93,6.93,0,0,1,1.12-2.42,4.87,4.87,0,0,1,1.84-1.53,5.64,5.64,0,0,1,2.53-.54,4.6,4.6,0,0,1,2.19.52,7.82,7.82,0,0,1,2,1.54V10.78a.46.46,0,0,1,.05-.2.36.36,0,0,1,.21-.16l.38-.09a5,5,0,0,1,.6,0,5.22,5.22,0,0,1,.62,0l.38.09a.41.41,0,0,1,.2.16.31.31,0,0,1,.07.2Zm-2.51-9.58a9.9,9.9,0,0,0-2-1.91,3.41,3.41,0,0,0-2-.66,2.85,2.85,0,0,0-1.62.45,3.58,3.58,0,0,0-1.08,1.2,5.4,5.4,0,0,0-.6,1.68A9.3,9.3,0,0,0,37.62,24a12.2,12.2,0,0,0,.16,2,5.79,5.79,0,0,0,.55,1.75,3.27,3.27,0,0,0,1,1.22,2.76,2.76,0,0,0,1.64.46,3.42,3.42,0,0,0,1-.13,3.26,3.26,0,0,0,.94-.46,6.91,6.91,0,0,0,1-.82,13.32,13.32,0,0,0,1.12-1.25Z"/><path class="cls-1" d="M64.78,30.94a.46.46,0,0,1,0,.21.49.49,0,0,1-.19.14,1.34,1.34,0,0,1-.36.09,4.06,4.06,0,0,1-.54,0,4.45,4.45,0,0,1-.57,0,1.18,1.18,0,0,1-.34-.09.39.39,0,0,1-.18-.14.46.46,0,0,1,0-.21v-1.8A8.54,8.54,0,0,1,60.21,31a5,5,0,0,1-2.3.59,5.27,5.27,0,0,1-2.3-.45,4.07,4.07,0,0,1-1.5-1.24,4.9,4.9,0,0,1-.83-1.82A10.68,10.68,0,0,1,53,25.59V17.32a.39.39,0,0,1,0-.2.53.53,0,0,1,.21-.16,1.61,1.61,0,0,1,.39-.09l.61,0,.6,0a1.5,1.5,0,0,1,.39.09.48.48,0,0,1,.2.16.32.32,0,0,1,.06.2v7.93a8.21,8.21,0,0,0,.18,1.92,3.4,3.4,0,0,0,.53,1.22,2.53,2.53,0,0,0,.9.79,2.7,2.7,0,0,0,1.27.28,3.15,3.15,0,0,0,1.87-.67,10.54,10.54,0,0,0,2-1.95V17.32a.31.31,0,0,1,0-.2.43.43,0,0,1,.2-.16,1.61,1.61,0,0,1,.39-.09l.61,0,.61,0a1.52,1.52,0,0,1,.38.09.67.67,0,0,1,.2.16.27.27,0,0,1,.07.2Z"/><path class="cls-1" d="M78.29,18.21c0,.22,0,.41,0,.56a1.49,1.49,0,0,1-.06.36.62.62,0,0,1-.11.2.29.29,0,0,1-.19.06,1,1,0,0,1-.3-.06,2.49,2.49,0,0,0-.39-.14,4.93,4.93,0,0,0-.49-.13,2.74,2.74,0,0,0-.59-.06,1.88,1.88,0,0,0-.74.15,2.87,2.87,0,0,0-.77.5,6,6,0,0,0-.84.92c-.29.39-.61.86-1,1.41v9a.37.37,0,0,1-.06.21.49.49,0,0,1-.19.14,1.52,1.52,0,0,1-.38.09,5.22,5.22,0,0,1-.62,0,5,5,0,0,1-.61,0,1.61,1.61,0,0,1-.39-.09.43.43,0,0,1-.19-.14.37.37,0,0,1-.06-.21V17.32a.39.39,0,0,1,.05-.2.41.41,0,0,1,.18-.16,1.36,1.36,0,0,1,.35-.09l.56,0,.55,0a1.09,1.09,0,0,1,.34.09.57.57,0,0,1,.18.16.39.39,0,0,1,0,.2v2a10.29,10.29,0,0,1,1-1.33,6.37,6.37,0,0,1,.93-.81,3.09,3.09,0,0,1,.87-.41,3.7,3.7,0,0,1,.87-.11l.45,0a3.34,3.34,0,0,1,.52.09,4.29,4.29,0,0,1,.49.13,1,1,0,0,1,.31.15.35.35,0,0,1,.13.15,1.22,1.22,0,0,1,0,.17c0,.07,0,.17,0,.31S78.29,18,78.29,18.21Z"/><path class="cls-1" d="M93.28,23.54a1,1,0,0,1-.3.84,1,1,0,0,1-.67.25h-9a8.42,8.42,0,0,0,.23,2,3.93,3.93,0,0,0,.76,1.56,3.39,3.39,0,0,0,1.39,1,5.32,5.32,0,0,0,2.08.35,8.15,8.15,0,0,0,1.73-.16,9.55,9.55,0,0,0,1.32-.35c.37-.14.67-.25.91-.36a1.44,1.44,0,0,1,.54-.16.38.38,0,0,1,.19.05.34.34,0,0,1,.13.16,1,1,0,0,1,.07.3,3.1,3.1,0,0,1,0,.46c0,.13,0,.24,0,.34a1.78,1.78,0,0,1,0,.26.5.5,0,0,1-.08.2,1,1,0,0,1-.13.18,3,3,0,0,1-.49.27,7.09,7.09,0,0,1-1.06.37c-.44.12-.94.23-1.51.33a11.69,11.69,0,0,1-1.82.14,8.57,8.57,0,0,1-3-.47,5.44,5.44,0,0,1-2.12-1.39,6,6,0,0,1-1.31-2.32,10.91,10.91,0,0,1-.43-3.24A10.24,10.24,0,0,1,81.2,21a6.6,6.6,0,0,1,1.31-2.38,5.8,5.8,0,0,1,2.06-1.5,6.79,6.79,0,0,1,2.71-.52,6.64,6.64,0,0,1,2.74.51,5.22,5.22,0,0,1,1.85,1.39,5.53,5.53,0,0,1,1.07,2,9.23,9.23,0,0,1,.34,2.51Zm-2.51-.74a4.59,4.59,0,0,0-.88-3.09,3.35,3.35,0,0,0-2.73-1.12,3.62,3.62,0,0,0-1.63.35,3.58,3.58,0,0,0-1.18.92,4.55,4.55,0,0,0-.73,1.34,5.66,5.66,0,0,0-.29,1.6Z"/><path class="cls-1" d="M100.79,12.72a1.64,1.64,0,0,1-.33,1.19,2.5,2.5,0,0,1-2.43,0,1.59,1.59,0,0,1-.32-1.17,1.66,1.66,0,0,1,.33-1.2,1.79,1.79,0,0,1,1.22-.31,1.76,1.76,0,0,1,1.21.31A1.58,1.58,0,0,1,100.79,12.72Zm-.28,18.22a.37.37,0,0,1-.06.21.54.54,0,0,1-.2.14,1.41,1.41,0,0,1-.38.09,5.22,5.22,0,0,1-.62,0,5.28,5.28,0,0,1-.61,0,1.41,1.41,0,0,1-.38-.09.32.32,0,0,1-.25-.35V17.32a.46.46,0,0,1,0-.2.41.41,0,0,1,.2-.15,1.41,1.41,0,0,1,.38-.09,5.28,5.28,0,0,1,.61,0,5.22,5.22,0,0,1,.62,0,1.41,1.41,0,0,1,.38.09.46.46,0,0,1,.2.15.36.36,0,0,1,.06.2Z"/><path class="cls-1" d="M113.51,11.72a2.77,2.77,0,0,1,0,.46,2.57,2.57,0,0,1-.06.28.27.27,0,0,1-.1.14.24.24,0,0,1-.15,0,.67.67,0,0,1-.27-.07l-.38-.15-.54-.15a3.82,3.82,0,0,0-.72-.07,2.12,2.12,0,0,0-1,.19,1.45,1.45,0,0,0-.64.56,2.79,2.79,0,0,0-.35,1,9.1,9.1,0,0,0-.1,1.49v1.49h3a.31.31,0,0,1,.2.05.39.39,0,0,1,.15.18,1,1,0,0,1,.11.33,3.08,3.08,0,0,1,0,.48,1.71,1.71,0,0,1-.14.79.4.4,0,0,1-.36.24h-3V30.94a.37.37,0,0,1-.06.21.59.59,0,0,1-.21.14,1.41,1.41,0,0,1-.38.09,6.22,6.22,0,0,1-1.22,0,1.41,1.41,0,0,1-.38-.09.51.51,0,0,1-.21-.14.37.37,0,0,1-.06-.21V19h-1.92a.38.38,0,0,1-.36-.24,1.91,1.91,0,0,1-.12-.79,3.23,3.23,0,0,1,0-.48,1.31,1.31,0,0,1,.09-.33.39.39,0,0,1,.15-.18.36.36,0,0,1,.21-.05h1.92V15.52a9.75,9.75,0,0,1,.27-2.45,4.08,4.08,0,0,1,.81-1.67,3.28,3.28,0,0,1,1.37-1,5.45,5.45,0,0,1,1.94-.31,4.93,4.93,0,0,1,1,.1,3.56,3.56,0,0,1,.77.21,1.28,1.28,0,0,1,.37.2.82.82,0,0,1,.15.24,1.13,1.13,0,0,1,.08.35A3.55,3.55,0,0,1,113.51,11.72Z"/><path class="cls-1" d="M122.8,31.32l-1.82,5a.67.67,0,0,1-.46.37,3.51,3.51,0,0,1-1.13.13,3.62,3.62,0,0,1-.63,0,.8.8,0,0,1-.37-.12.35.35,0,0,1-.15-.25.76.76,0,0,1,.08-.36l1.88-4.74a.68.68,0,0,1-.26-.2.75.75,0,0,1-.17-.28l-4.86-13a1.53,1.53,0,0,1-.12-.5.37.37,0,0,1,.12-.29.75.75,0,0,1,.4-.14,4.67,4.67,0,0,1,.72,0l.72,0a1.59,1.59,0,0,1,.4.09.39.39,0,0,1,.22.17,1.8,1.8,0,0,1,.15.31l3.89,10.93h0l3.76-11a.67.67,0,0,1,.22-.37.81.81,0,0,1,.38-.12,4.71,4.71,0,0,1,.74,0,4.47,4.47,0,0,1,.7,0,.75.75,0,0,1,.4.14.35.35,0,0,1,.13.29,1.48,1.48,0,0,1-.09.45Z"/></g></g></svg>