<svg width="60" height="60" viewBox="0 0 60 60" fill="none" xmlns="http://www.w3.org/2000/svg">
<circle cx="30" cy="30" r="30" fill="#22ADCF"/>
<path d="M47.0868 37.0513C46.4339 36.0918 45.3264 35.8576 44.1233 36.4237L43.4856 36.7045C44.4911 34.5614 44.6158 32.1724 44.1153 29.9159C43.5405 27.3242 42.152 24.8135 39.9886 22.4535C39.7973 22.2448 39.4731 22.2307 39.2643 22.4221C39.0556 22.6133 39.0415 22.9376 39.2329 23.1463C41.2731 25.3718 42.5791 27.7242 43.1145 30.1379C43.6784 32.6804 43.3503 35.3023 41.9113 37.3976L35.5305 40.2071L35.5357 39.4865C35.5359 39.4683 35.535 39.4501 35.5332 39.432C35.3859 37.9509 34.2537 36.7708 32.78 36.5623C32.7756 36.5616 32.7712 36.561 32.7668 36.5606L27.0956 35.9076C24.9149 35.5972 24.3532 34.2904 21.3998 33.5452C21.1958 31.8136 21.4678 29.97 22.2133 28.1218C23.3361 25.3384 25.5327 22.6341 28.5778 20.2802C29.7128 21.085 34.7764 21.1851 35.9095 20.147C36.49 20.5879 37.0441 21.0422 37.5602 21.502C37.6579 21.5891 37.7797 21.6319 37.901 21.6319C38.0421 21.6319 38.1827 21.574 38.2839 21.4603C38.4722 21.249 38.4535 20.9249 38.2421 20.7366C37.6764 20.2326 37.0679 19.7353 36.4296 19.2546C36.5792 18.6204 36.3698 17.8781 35.8175 17.4362C37.4225 15.0018 37.8893 13.4084 37.2445 12.5736C36.8016 12.0001 36.2506 12.2693 36.0153 12.3843C35.6165 12.5789 35.3991 12.5892 35.0321 12.3491C34.3321 11.891 33.5962 11.8763 32.8736 12.3491C32.502 12.5923 32.2094 12.5923 31.8379 12.3491C31.1378 11.891 30.4022 11.8763 29.6794 12.3491C29.3083 12.5921 29.09 12.577 28.6975 12.3819C28.4624 12.2651 27.9121 11.9915 27.4664 12.5651C26.836 13.3764 27.2577 14.9195 28.7545 17.2711C28.6628 17.3207 28.5754 17.3789 28.4939 17.4453C27.8986 16.8167 26.9233 16.161 25.5129 16.3185C24.3431 16.4494 23.4805 16.0629 22.9627 15.7156C22.7276 15.5581 22.4092 15.6209 22.2515 15.8559C22.0939 16.091 22.1567 16.4095 22.3918 16.5671C23.0518 17.0096 24.1487 17.5022 25.6267 17.3374C26.7163 17.2151 27.4557 17.772 27.916 18.3387C27.9097 18.3606 27.9039 18.3826 27.8985 18.4046C27.5059 18.4107 26.9192 18.4474 26.273 18.5818C24.7191 18.9051 23.5656 19.6435 22.9372 20.7176C22.7942 20.9619 22.8764 21.276 23.1207 21.419C23.3651 21.5619 23.6791 21.4797 23.822 21.2354C24.7567 19.6379 27.0384 19.4425 27.9446 19.4303C27.9485 19.4415 27.9531 19.4527 27.9572 19.4639C24.7233 21.9585 22.4718 24.7406 21.2626 27.7381C20.4984 29.6328 20.1931 31.531 20.348 33.335C19.8565 33.2622 19.3592 33.2232 18.8596 33.2198V32.9098C18.8596 32.0895 18.1923 31.4223 17.372 31.4223H15.0188C14.1986 31.4223 13.5312 32.0896 13.5312 32.9098V44.8483C13.5312 45.6686 14.1986 46.3359 15.0188 46.3359H17.372C18.1922 46.3359 18.8595 45.6686 18.8595 44.8483V44.7023L23.9927 46.6129C24.6825 46.8696 25.4055 46.9998 26.1415 46.9998H33.79C34.9593 46.9998 36.0995 46.6689 37.0871 46.0431C47.2904 39.5749 46.6708 39.9774 46.7297 39.9251C47.5516 39.1956 47.7051 37.9601 47.0868 37.0513ZM34.9476 19.5396C33.073 20.0129 31.2504 20.0129 29.3755 19.5396C28.5709 19.3362 28.804 17.9013 29.6686 18.1182C31.346 18.5393 32.9768 18.5393 34.6544 18.1182C35.5039 17.9049 35.765 19.333 34.9476 19.5396ZM28.2293 13.2942C28.2333 13.2962 28.2373 13.2982 28.2412 13.3001C28.9349 13.6449 29.5429 13.6637 30.2407 13.2071C31.1141 12.6354 31.2089 13.552 32.3556 13.552C32.9077 13.552 33.2124 13.3527 33.4348 13.2071C33.8065 12.9639 34.0992 12.964 34.4708 13.2071C35.1718 13.6658 35.765 13.6432 36.4789 13.2988C36.5844 13.679 36.3457 14.8125 34.8257 17.0756C34.0709 17.0628 32.9755 17.8041 29.8745 17.114C28.3578 14.8217 28.1232 13.6772 28.2293 13.2942ZM46.0769 39.1333L36.5384 45.1775C35.7152 45.6991 34.7648 45.975 33.79 45.975H26.1416C25.528 45.975 24.9254 45.8664 24.3504 45.6524L18.8595 43.6086V38.0883C18.8595 37.8051 18.63 37.5756 18.347 37.5756C18.0639 37.5756 17.8344 37.8051 17.8344 38.0883V44.8486C17.8344 45.1036 17.6269 45.311 17.372 45.311H15.0188C14.7638 45.311 14.5564 45.1035 14.5564 44.8486V32.91C14.5564 32.6551 14.7638 32.4477 15.0188 32.4477H17.372C17.6269 32.4477 17.8343 32.6551 17.8343 32.91V35.6919C17.8343 35.975 18.0638 36.2045 18.3469 36.2045C18.63 36.2045 18.8595 35.975 18.8595 35.6919V34.2452C23.0999 34.2777 24.0533 36.5127 26.9584 36.9236C26.9628 36.9243 26.9671 36.9249 26.9715 36.9253L32.6424 37.5782C33.6354 37.7216 34.3996 38.5123 34.5102 39.5078L34.5031 40.4829H29.2145C28.9314 40.4829 28.7018 40.7124 28.7018 40.9955C28.7018 41.2787 28.9313 41.5081 29.2145 41.5081H35.012C35.0767 41.5081 35.1515 41.4938 35.2166 41.4654C35.227 41.4608 44.5314 37.3642 44.5423 37.3594C45.213 37.0614 45.8244 37.0188 46.2391 37.6281C46.5615 38.1017 46.4901 38.7418 46.0769 39.1333Z" fill="white"/>
<path d="M32.2986 35.256C32.5817 35.256 32.8112 35.0265 32.8112 34.7434V33.8937C34.2503 33.6602 35.0899 32.4954 35.2726 31.4088C35.5008 30.0513 34.7897 28.8708 33.4613 28.4013C33.2265 28.3183 33.0105 28.2389 32.8112 28.1623V24.8939C33.4176 24.9945 33.7817 25.3083 33.8082 25.3317C34.0164 25.5211 34.3386 25.5071 34.5297 25.3C34.7217 25.0919 34.7085 24.7676 34.5005 24.5756C34.4643 24.5423 33.8365 23.977 32.8112 23.8588V23.1298C32.8112 22.8467 32.5817 22.6172 32.2985 22.6172C32.0155 22.6172 31.786 22.8467 31.786 23.1298V23.9002C31.6624 23.9239 31.5358 23.954 31.4057 23.9931C30.5362 24.255 29.8862 25.0006 29.7094 25.9388C29.5489 26.7903 29.8189 27.6091 30.4138 28.0757C30.7554 28.3436 31.1854 28.5889 31.786 28.8511V32.9049C31.1932 32.8798 30.8283 32.7685 30.1917 32.352C29.9548 32.1971 29.6371 32.2634 29.4821 32.5004C29.3272 32.7372 29.3935 33.055 29.6305 33.21C30.4673 33.7574 31.0266 33.9002 31.786 33.9297V34.7434C31.786 35.0265 32.0155 35.256 32.2986 35.256ZM31.0465 27.269C30.7539 27.0395 30.6275 26.6025 30.7168 26.1287C30.7997 25.6893 31.1018 25.1554 31.7014 24.9748C31.7299 24.9662 31.7579 24.9588 31.786 24.9513V27.7202C31.479 27.567 31.2383 27.4195 31.0465 27.269ZM33.1196 29.3679C34.3952 29.8187 34.3162 30.914 34.2615 31.2389C34.1485 31.9116 33.6546 32.6298 32.8112 32.8459V29.2568C32.911 29.2933 33.0129 29.3301 33.1196 29.3679Z" fill="white"/>
</svg>
