<svg width="91" height="91" viewBox="0 0 91 91" fill="none" xmlns="http://www.w3.org/2000/svg">
<rect width="91" height="91" fill="#E5E5E5"/>
<circle r="45.5" transform="matrix(1 0 0 -1 45.5 45.5)" fill="#FF9900"/>
<path d="M44.3984 55.4727H46.607V70.9313H44.3984V55.4727Z" fill="white"/>
<path d="M28.9375 51.0547H62.0625V53.2629H28.9375V51.0547Z" fill="white"/>
<path d="M66.482 36.702C63.4376 36.702 60.9609 34.2253 60.9609 31.1813C60.9609 28.1368 63.4376 25.6602 66.482 25.6602C69.526 25.6602 72.0027 28.1368 72.0027 31.1813C72.0027 34.2253 69.526 36.702 66.482 36.702ZM66.482 27.8688C64.6556 27.8688 63.1695 29.3548 63.1695 31.1813C63.1695 33.0073 64.6556 34.4938 66.482 34.4938C68.3081 34.4938 69.7945 33.0073 69.7945 31.1813C69.7945 29.3548 68.3081 27.8688 66.482 27.8688Z" fill="white"/>
<path d="M55.4348 70.9313C55.2892 70.9313 55.1412 70.9034 54.9997 70.8415C54.4388 70.6009 54.1792 69.9519 54.4202 69.3919L57.7327 61.6626C57.9058 61.2566 58.3057 60.9938 58.7473 60.9938H66.4766C68.3026 60.9938 69.7891 59.5073 69.7891 57.6813V43.327C69.7891 42.109 68.7984 41.1188 67.5805 41.1188H66.4766C65.7014 41.1188 64.9958 41.6311 64.0452 42.8898C62.9785 44.2986 59.7412 48.2735 59.6041 48.4413C59.393 48.6989 59.0796 48.8477 58.7473 48.8477H53.2266C52.6168 48.8477 52.1223 49.3426 52.1223 49.952V52.1602C52.1223 52.7707 51.6285 53.2645 51.018 53.2645C50.4074 53.2645 49.9141 52.7707 49.9141 52.1602V49.952C49.9141 48.1255 51.4001 46.6395 53.2266 46.6395H58.2216C59.0918 45.5683 61.437 42.6755 62.283 41.5571C63.2158 40.3246 64.534 38.9102 66.4766 38.9102H67.5805C70.0163 38.9102 71.9973 40.8911 71.9973 43.327V57.6813C71.9973 60.7253 69.5206 63.202 66.4766 63.202H59.4751L56.4493 70.262C56.2706 70.6806 55.863 70.9313 55.4348 70.9313Z" fill="white"/>
<path d="M51.0177 70.9297C50.9028 70.9297 50.7847 70.9107 50.6687 70.8723C50.0913 70.6802 49.7779 70.0551 49.9712 69.4752L53.6326 58.49C54.2319 56.6858 55.9169 55.4711 57.8218 55.4711H60.9552V52.1586C60.9552 51.548 61.4489 51.0547 62.0595 51.0547C62.67 51.0547 63.1638 51.548 63.1638 52.1586V56.5754C63.1638 57.186 62.67 57.6797 62.0595 57.6797H57.8218C56.8699 57.6797 56.0272 58.2858 55.728 59.1879L52.0657 70.1743C51.9109 70.6369 51.4802 70.9297 51.0177 70.9297Z" fill="white"/>
<path d="M62.0643 53.2645C61.8338 53.2645 61.6017 53.1929 61.4032 53.0437C60.9151 52.6781 60.8156 51.9859 61.182 51.499L64.4945 47.0822C64.86 46.5942 65.5523 46.4959 66.0395 46.8615C66.5276 47.227 66.6266 47.9193 66.2603 48.4061L62.9478 52.8229C62.7323 53.112 62.4011 53.2645 62.0643 53.2645Z" fill="white"/>
<path d="M24.5207 36.702C21.4767 36.702 19 34.2253 19 31.1813C19 28.1368 21.4767 25.6602 24.5207 25.6602C27.5651 25.6602 30.0418 28.1368 30.0418 31.1813C30.0418 34.2253 27.5651 36.702 24.5207 36.702ZM24.5207 27.8688C22.6946 27.8688 21.2082 29.3548 21.2082 31.1813C21.2082 33.0073 22.6946 34.4938 24.5207 34.4938C26.3472 34.4938 27.8332 33.0073 27.8332 31.1813C27.8332 29.3548 26.3472 27.8688 24.5207 27.8688Z" fill="white"/>
<path d="M35.5625 70.9313C35.1343 70.9313 34.7267 70.6806 34.548 70.262L31.5222 63.202H24.5207C21.4767 63.202 19 60.7253 19 57.6813V43.327C19 40.8911 20.9809 38.9102 23.4168 38.9102H24.5207C26.4632 38.9102 27.7827 40.3246 28.7135 41.5571C29.5602 42.6755 31.9043 45.5683 32.7745 46.6395H37.7707C39.5972 46.6395 41.0832 48.1255 41.0832 49.952V52.1602C41.0832 52.7707 40.5887 53.2645 39.9793 53.2645C39.3695 53.2645 38.875 52.7707 38.875 52.1602V49.952C38.875 49.3426 38.3793 48.8477 37.7707 48.8477H32.25C31.9176 48.8477 31.6042 48.6989 31.3944 48.4413C31.2573 48.2735 28.0188 44.2986 26.9533 42.8886C26.0015 41.6311 25.2971 41.1188 24.5207 41.1188H23.4168C22.1989 41.1188 21.2082 42.109 21.2082 43.327V57.6813C21.2082 59.5073 22.6946 60.9938 24.5207 60.9938H32.25C32.6916 60.9938 33.0915 61.2566 33.2645 61.6626L36.577 69.3919C36.818 69.9519 36.5572 70.6009 35.9976 70.8415C35.8561 70.9034 35.7081 70.9313 35.5625 70.9313Z" fill="white"/>
<path d="M39.982 70.9297C39.5195 70.9297 39.0888 70.6369 38.9339 70.1743L35.2725 59.1888C34.9724 58.287 34.1298 57.6797 33.1779 57.6797H28.9402C28.3309 57.6797 27.8359 57.186 27.8359 56.5754V52.1586C27.8359 51.548 28.3309 51.0547 28.9402 51.0547C29.5496 51.0547 30.0445 51.548 30.0445 52.1586V55.4711H33.1779C35.0828 55.4711 36.7666 56.6846 37.3683 58.49L41.0297 69.4752C41.223 70.0538 40.9104 70.6802 40.3318 70.8723C40.2149 70.9107 40.0969 70.9297 39.982 70.9297Z" fill="white"/>
<path d="M28.9417 53.2645C28.6061 53.2645 28.2745 53.112 28.057 52.8229L24.7445 48.4061C24.3781 47.9193 24.4776 47.227 24.9657 46.8615C25.4557 46.4959 26.1468 46.5942 26.5115 47.0822L29.824 51.499C30.1904 51.9859 30.0909 52.6781 29.6028 53.0437C29.4043 53.1929 29.1714 53.2645 28.9417 53.2645Z" fill="white"/>
<path d="M54.3332 48.8469C53.7226 48.8469 53.2293 48.3536 53.2293 47.743V40.0137C53.2293 37.5778 51.2484 35.5969 48.8125 35.5969H42.1875C39.7516 35.5969 37.7707 37.5778 37.7707 40.0137V43.3262C37.7707 43.9355 37.2762 44.4305 36.6668 44.4305C36.057 44.4305 35.5625 43.9355 35.5625 43.3262V40.0137C35.5625 36.3599 38.5337 33.3887 42.1875 33.3887H48.8125C52.4663 33.3887 55.4375 36.3599 55.4375 40.0137V47.743C55.4375 48.3536 54.9438 48.8469 54.3332 48.8469Z" fill="white"/>
<path d="M45.4973 31.1805C42.4533 31.1805 39.9766 28.7038 39.9766 25.6594C39.9766 22.6154 42.4533 20.1387 45.4973 20.1387C48.5413 20.1387 51.018 22.6154 51.018 25.6594C51.018 28.7038 48.5413 31.1805 45.4973 31.1805ZM45.4973 22.3469C43.6708 22.3469 42.1848 23.8333 42.1848 25.6594C42.1848 27.4859 43.6708 28.9719 45.4973 28.9719C47.3237 28.9719 48.8098 27.4859 48.8098 25.6594C48.8098 23.8333 47.3237 22.3469 45.4973 22.3469Z" fill="white"/>
<path d="M44.3984 37.8047H46.607V40.0129H44.3984V37.8047Z" fill="white"/>
</svg>
