<svg width="60" height="60" viewBox="0 0 60 60" fill="none" xmlns="http://www.w3.org/2000/svg">
<circle cx="30" cy="30" r="30" fill="#29B475"/>
<path d="M43.3756 42.4096C43.052 42.4096 42.7896 42.672 42.7896 42.9955V48.5045C42.7896 48.6828 42.6445 48.828 42.4661 48.828H39.3163V37.2891C39.3163 36.9655 39.054 36.7032 38.7304 36.7032C38.4068 36.7032 38.1445 36.9655 38.1445 37.2891V48.828H31.8019L33.6412 46.8046C33.8421 46.5835 33.9369 46.2686 33.8946 45.9619C33.8938 45.9559 33.8929 45.95 33.8919 45.9441L32.1401 35.5951L32.612 34.8846C32.873 35.0699 33.074 35.2484 33.4509 35.2484C33.8344 35.2484 34.1929 35.0338 34.3693 34.6805V34.6804L36.217 30.9773L40.426 32.6073C40.5783 32.6727 42.7895 33.6684 42.7895 36.2978V40.2611C42.7894 40.5846 43.0517 40.847 43.3754 40.847C43.699 40.847 43.9613 40.5847 43.9613 40.2611V36.2978C43.9613 32.8334 40.995 31.5741 40.8688 31.5222C40.8651 31.5206 40.8613 31.5191 40.8576 31.5177L33.8523 28.8048V27.1618C34.9649 26.2965 35.7364 25.0138 35.9301 23.5503C36.4849 23.5112 36.9996 23.3041 37.42 22.9426C37.969 22.4705 38.284 21.7834 38.284 21.0577C38.284 20.4555 38.0667 19.8805 37.6795 19.4325V17.262C37.6795 13.2577 34.4218 10 30.4176 10C26.4134 10 23.1557 13.2577 23.1557 17.262V19.4894C22.7644 19.9329 22.5516 20.4788 22.5516 21.0577C22.5516 21.7835 22.8664 22.4705 23.4155 22.9427C23.8356 23.3041 24.3501 23.511 24.9047 23.5502C25.0999 25.041 25.8939 26.3716 27.1013 27.2485V28.8048L20.1036 31.5177C20.0999 31.5191 20.0963 31.5205 20.0926 31.522C19.9663 31.574 17 32.8333 17 36.2977V48.5043C17 49.3289 17.6709 49.9998 18.4955 49.9998H24.078C24.4016 49.9998 24.664 49.7374 24.664 49.4138C24.664 49.0902 24.4016 48.8279 24.078 48.8279H22.8173V37.2891C22.8173 36.9655 22.555 36.7032 22.2314 36.7032C21.9078 36.7032 21.6455 36.9655 21.6455 37.2891V48.828H18.4955C18.3172 48.828 18.172 48.6829 18.172 48.5045V36.2977C18.172 33.6595 20.398 32.666 20.5348 32.6076L24.7405 30.9771L26.5884 34.6804C26.7652 35.0345 27.1241 35.2484 27.5068 35.2484C27.8819 35.2484 28.0809 35.0727 28.3457 34.8846L28.8177 35.5951L27.066 45.9441C27.065 45.95 27.0641 45.9559 27.0633 45.9618C27.0209 46.2684 27.1157 46.5834 27.3167 46.8047L29.156 48.8281H26.8127C26.4891 48.8281 26.2267 49.0905 26.2267 49.4141C26.2267 49.7377 26.4891 50 26.8127 50H42.4662C43.2908 50 43.9616 49.3291 43.9616 48.5045V42.9956C43.9615 42.672 43.6991 42.4096 43.3756 42.4096ZM35.1194 30.5523L33.3968 34.0046C33.354 33.9742 32.4411 33.3256 31.3252 32.5332C31.8094 31.9355 31.2429 32.6347 33.4529 29.9069L35.1194 30.5523ZM31.6559 34.2057L31.2092 34.8781H29.748L29.3013 34.2057L30.4787 33.3695L31.6559 34.2057ZM28.2731 28.9938V27.8973C28.985 28.1842 29.7458 28.3173 30.4888 28.3173C31.257 28.3173 32.0103 28.1535 32.6803 27.8605V28.9986L30.4787 31.7162L28.2731 28.9938ZM37.112 21.0577C37.112 21.4416 36.9457 21.8048 36.6559 22.0541C36.4642 22.2189 36.2327 22.3243 35.9792 22.3655V19.7502C36.6527 19.8595 37.112 20.4181 37.112 21.0577ZM24.8563 22.3655C24.1752 22.255 23.7234 21.6919 23.7234 21.0577C23.7234 20.4312 24.2427 19.9214 24.8563 19.7796V22.3655ZM24.8877 18.5856C24.7011 18.607 24.4872 18.6576 24.3277 18.7118V17.262C24.3277 13.9039 27.0596 11.172 30.4177 11.172C33.7757 11.172 36.5076 13.9039 36.5076 17.262V18.6716C36.3373 18.6198 36.1606 18.5855 35.9793 18.5695C35.9793 18.0041 35.9842 18.1131 34.1346 16.1246C33.7945 15.7591 33.2318 15.6826 32.8036 15.9623C30.7622 17.2959 28.272 17.9658 25.9743 17.8008C25.4703 17.763 25.0113 18.095 24.8877 18.5856ZM26.0282 22.8269V19.1712V18.9787C28.5575 19.1268 31.2093 18.3754 33.3516 17.0034C34.1999 17.9142 34.6592 18.392 34.8074 18.5737C34.8074 19.0334 34.8074 22.3006 34.8074 22.8268C34.8074 25.2055 32.8678 27.1452 30.4888 27.1452C27.8174 27.1453 26.0282 25.073 26.0282 22.8269ZM27.5606 34.0046L25.838 30.5523L27.5016 29.908L29.6298 32.5349C28.5475 33.3034 27.6588 33.9348 27.5606 34.0046ZM28.2329 46.0705L29.9289 36.0499H31.0282L32.7242 46.0705L30.4786 48.541L28.2329 46.0705Z" fill="white"/>
</svg>
