<svg width="60" height="60" viewBox="0 0 60 60" fill="none" xmlns="http://www.w3.org/2000/svg">
<circle r="30" transform="matrix(1 0 0 -1 30 30)" fill="#22ADCF"/>
<path d="M41.3797 22.3188L42.1142 20.8077L42.1192 20.7974V20.7949C42.1194 20.7944 42.1196 20.794 42.1197 20.7935C42.1202 20.7922 42.1208 20.7905 42.1213 20.7886C42.1234 20.784 42.1251 20.7795 42.1264 20.7763C42.1288 20.7704 42.1301 20.7672 42.1311 20.7654L42.1312 20.7654L42.1329 20.7613C42.2495 20.472 42.386 20.125 42.4344 19.7332C42.5835 18.571 42.1405 17.3456 41.2488 16.4495C40.3997 15.5961 39.1017 15.1157 37.8689 15.1899L37.8685 15.19C37.6097 15.2075 37.3339 15.2557 37.0496 15.3388C36.5978 15.4704 36.1558 15.6982 35.7406 16.0172L35.7711 16.0569M41.3797 22.3188L34.7769 17.2283M41.3797 22.3188L41.8645 22.552L42.5602 21.1187L41.3797 22.3188ZM35.7711 16.0569C35.4771 16.2816 35.0665 16.6663 34.7855 17.2067C34.7855 17.2088 34.7844 17.211 34.7834 17.2131C34.7823 17.2153 34.7812 17.2175 34.7812 17.2197C34.7812 17.2241 34.7769 17.2283 34.7769 17.2283M35.7711 16.0569L35.7407 16.0171C35.4433 16.2446 35.0266 16.6346 34.7412 17.1836L34.7355 17.1944V17.1977C34.7353 17.1981 34.7352 17.1985 34.735 17.199C34.7346 17.2 34.7342 17.2012 34.7338 17.2026L34.7319 17.2065L32.0528 22.7332C32.0404 22.7538 32.0273 22.7758 32.014 22.8021M35.7711 16.0569C36.1818 15.7413 36.6183 15.5165 37.0636 15.3868C37.3446 15.3047 37.6169 15.2572 37.8719 15.2398C39.091 15.1664 40.3748 15.6419 41.2134 16.4848C42.0952 17.371 42.5318 18.5813 42.3848 19.7268C42.3373 20.1116 42.2032 20.4531 42.0865 20.7426C42.0843 20.7471 42.0821 20.7526 42.0798 20.7581C42.0777 20.7634 42.0756 20.7687 42.0735 20.7729M34.7769 17.2283L34.7685 17.2197L34.7557 17.2067L34.7419 17.1926L34.7419 17.1926L34.7557 17.2067L34.7684 17.2197L34.7769 17.2283ZM32.014 22.8021L42.0692 20.7859C42.0692 20.7837 42.0703 20.7816 42.0714 20.7794C42.0724 20.7773 42.0735 20.7751 42.0735 20.7729M32.014 22.8021C31.9989 22.8278 31.9891 22.8571 31.9813 22.8807L25.0404 37.1859L25.0403 37.1861C24.9333 37.4091 24.8797 37.6589 24.8884 37.9089L24.8884 37.9123L24.8885 37.914L25.044 42.5262L25.0441 42.5265C25.0614 42.9759 25.2262 43.396 25.5016 43.729L25.1055 44.5295C24.9114 44.9177 25.0734 45.3884 25.4607 45.5821L25.4607 45.5821C25.5713 45.6374 25.6913 45.6653 25.8073 45.6653C26.0981 45.6653 26.375 45.5037 26.5134 45.227L26.5135 45.2267L26.8963 44.4486C26.9447 44.452 26.9926 44.4549 27.0435 44.4549C27.4601 44.4549 27.8725 44.3264 28.2187 44.0692C28.2187 44.0691 28.2188 44.0691 28.2189 44.069L31.9444 41.3375C31.9445 41.3375 31.9445 41.3374 31.9446 41.3374C32.0256 41.2788 32.1012 41.2076 32.1672 41.1372C32.1751 41.1293 32.1815 41.1216 32.1866 41.1155L32.187 41.115C32.1925 41.1084 32.1966 41.1036 32.2013 41.0989L32.2014 41.099L32.2037 41.0962C32.289 40.9975 32.3604 40.8859 32.4181 40.7703L32.4184 40.7698L40.6919 23.727L41.1767 23.9603L37.5028 31.5273L32.014 22.8021ZM42.0735 20.7729L42.0995 20.7859L42.1182 20.7952L42.0735 20.7729ZM42.8819 24.0404L38.9157 32.2104C38.9156 32.2105 38.9156 32.2106 38.9156 32.2107C38.7814 32.4926 38.4996 32.6539 38.2091 32.6539C38.0943 32.6539 37.9786 32.6309 37.8672 32.5754M42.8819 24.0404L37.5027 31.5274C37.3135 31.9153 37.4751 32.386 37.8672 32.5754M42.8819 24.0404C42.9039 24.0093 42.926 23.9737 42.944 23.9377C42.9579 23.9099 42.9674 23.8829 42.976 23.8585C42.9788 23.8506 42.9815 23.8429 42.9842 23.8356L43.973 21.7977C43.973 21.7977 43.973 21.7976 43.9731 21.7975C44.1626 21.4134 43.9956 20.9429 43.6084 20.7539C43.2204 20.5646 42.7496 20.7262 42.5603 21.1186L42.8819 24.0404ZM37.8672 32.5754C37.8671 32.5753 37.867 32.5753 37.8669 32.5752L37.8892 32.5305L37.8675 32.5755C37.8674 32.5755 37.8673 32.5754 37.8672 32.5754ZM26.8154 42.8258L26.8156 42.8253L26.8087 42.823C26.8038 42.8214 26.7996 42.8197 26.7942 42.8176L26.7936 42.8173C26.7901 42.8159 26.786 42.8143 26.7814 42.8126C26.6718 42.7346 26.6046 42.6126 26.6008 42.48L26.6008 42.4797L26.5007 39.5814C27.4309 40.2872 28.4905 40.8028 29.6177 41.1027L27.287 42.8081C27.2869 42.8081 27.2868 42.8082 27.2867 42.8083C27.1675 42.8927 27.0183 42.9124 26.8838 42.8641C26.8633 42.8518 26.8414 42.8388 26.8154 42.8258ZM26.4493 39.5421L26.4471 39.4771C26.4641 39.4904 26.4813 39.5037 26.4985 39.5168L26.4493 39.5421ZM36.696 17.2639L36.6962 17.2637C36.9516 17.0679 37.2228 16.9242 37.4795 16.8484C37.6538 16.7974 37.8187 16.7679 37.957 16.7596C38.7431 16.7128 39.5978 17.028 40.1318 17.562L40.1318 17.562C40.6759 18.1059 40.9584 18.8648 40.8741 19.5348C40.8492 19.7301 40.7699 19.94 40.6878 20.1432L38.3328 24.9944L33.763 22.7858L36.1267 17.9127C36.2528 17.6818 36.4509 17.4498 36.696 17.2639ZM26.5937 37.5614L33.0753 24.2027L37.6408 26.4113L31.1506 39.7827C29.4191 39.6051 27.8025 38.8179 26.5937 37.5614Z" fill="white" stroke="white" stroke-width="0.1"/>
<path d="M22.2176 44.2479L22.2182 44.2479C22.2941 44.2479 22.3695 44.2474 22.4432 44.2469C22.586 44.246 22.7227 44.2451 22.8458 44.2479C22.8459 44.2479 22.846 44.2479 22.8461 44.2479L22.2176 44.2479ZM22.2176 44.2479C21.6294 44.2544 20.7906 44.263 20.0118 44.1726C19.6225 44.1274 19.2499 44.0577 18.9321 43.9514C18.6136 43.8449 18.3546 43.7031 18.1878 43.5167L18.1877 43.5165M22.2176 44.2479L18.1877 43.5165M18.1877 43.5165C18.1304 43.4531 18.0655 43.3649 18.0213 43.2332C17.9769 43.1012 17.9524 42.9228 17.9798 42.6782C18.1428 41.276 18.9326 39.7979 19.6341 38.4858L19.6342 38.4856M18.1877 43.5165L19.6342 38.4856M19.6342 38.4856L19.7508 38.2654M19.6342 38.4856L19.7508 38.2654M13.8898 24.3256L13.89 24.3256C14.2726 24.4058 14.6829 24.4736 15.1144 24.545C15.1934 24.558 15.273 24.5712 15.3533 24.5846L13.8898 24.3256ZM13.8898 24.3256C13.465 24.2378 13.0495 24.5148 12.9662 24.9397C12.8786 25.3644 13.1555 25.7798 13.5803 25.8631C14.061 25.9618 14.5629 26.0434 15.0889 26.129L15.1036 26.1314L15.1037 26.1314L15.1251 26.1349C16.2112 26.3134 17.3636 26.5028 18.3968 26.8481C19.4366 27.1956 20.3497 27.6992 20.9505 28.5024L20.9505 28.5025M13.8898 24.3256L20.9505 28.5025M20.9505 28.5025C21.6564 29.4452 21.6551 30.8151 20.9142 32.59L20.9142 32.59M20.9505 28.5025L20.9142 32.59M20.9142 32.59C20.3967 33.832 19.728 35.0443 19.0751 36.2204L19.0751 36.2205M20.9142 32.59L19.0751 36.2205M19.0751 36.2205C18.8416 36.6441 18.5995 37.0852 18.3659 37.522L19.0751 36.2205ZM19.7508 38.2654C19.7508 38.2653 19.7509 38.2652 19.7509 38.2652M19.7508 38.2654L19.7509 38.2652M19.7509 38.2652C19.9798 37.8376 20.2174 37.4056 20.4508 36.9821C21.1206 35.7721 21.8135 34.5162 22.3637 33.1948C22.7717 32.2182 22.9983 31.2961 23.0375 30.4633C23.0898 29.3465 22.8106 28.3708 22.2063 27.5651C21.4856 26.5998 20.4345 25.8945 19.0012 25.3994L19.7509 38.2652Z" fill="white" stroke="white" stroke-width="0.1"/>
</svg>
